<?xml version="1.0" encoding="UTF-8" standalone="no"?>
<!DOCTYPE svg PUBLIC "-//W3C//DTD SVG 1.1//EN" "http://www.w3.org/Graphics/SVG/1.1/DTD/svg11.dtd">
<!-- Created with Vectornator (http://vectornator.io/) -->
<svg height="100%" stroke-miterlimit="10" style="fill-rule:nonzero;clip-rule:evenodd;stroke-linecap:round;stroke-linejoin:round;" version="1.1" viewBox="0 0 55.42 22.4" width="100%" xml:space="preserve" xmlns="http://www.w3.org/2000/svg" xmlns:xlink="http://www.w3.org/1999/xlink">
<defs/>
<clipPath id="ArtboardFrame">
<rect height="22.4" width="55.42" x="0" y="0"/>
</clipPath>
<g clip-path="url(#ArtboardFrame)" id="Layer-1">
<path d="M21.7318 14.3218C21.5284 14.1866 21.1349 14.5141 21.013 14.6344C20.9709 14.676 20.8575 14.7086 20.888 14.7594C20.9711 14.8972 21.1027 15.0018 21.2318 15.1031C21.4199 15.0485 21.5961 14.9781 21.763 14.8844C21.8687 14.825 21.9622 14.6925 21.9506 14.5718C21.9403 14.4658 21.8205 14.3809 21.7318 14.3218ZM21.2318 15.1031C20.8555 15.2122 20.4594 15.2906 20.1693 15.5406C20.0866 15.6119 20.1629 15.9699 20.138 16.3218C20.2913 16.457 20.148 16.3183 20.8568 16.4468C20.9544 16.4122 21.0722 16.4743 21.1068 16.5718C21.1318 16.6424 21.0628 16.6786 21.013 16.7281C21.0916 16.815 21.4739 17.3257 21.9506 17.8844C22.212 17.071 21.9845 16.0259 21.6068 15.4468C21.5148 15.3058 21.3669 15.2091 21.2318 15.1031ZM21.9506 17.8844C21.8805 18.1023 21.9431 18.3827 21.763 18.5406C21.6105 18.6743 21.5369 18.576 21.4506 18.4468C21.4312 18.4179 21.4144 18.3302 21.388 18.3531C21.0783 18.622 20.8602 19.1451 20.4506 19.1656C20.1891 19.1787 20.2737 18.6741 20.2318 18.4156C20.2065 18.2596 20.5288 17.7482 20.6693 17.5094C20.5872 17.5075 20.4964 17.5048 20.4193 17.4781C20.2909 17.4337 20.1552 17.3693 20.0756 17.2594C19.9974 17.1515 20.1081 16.7448 20.138 16.3218C20.1316 16.3161 20.1144 16.3286 20.1068 16.3218C19.8283 16.0748 19.3374 15.5426 19.138 15.3844C18.9019 15.197 18.6843 14.829 18.388 14.8844C17.9849 14.9597 17.7602 15.4278 17.4506 15.6968C17.4085 15.7334 17.1117 15.5901 16.888 15.8218C16.5106 16.2128 16.3702 16.9003 16.4193 17.4156C16.4422 17.6563 16.4912 17.9077 16.5756 18.1344C16.6905 18.4433 16.8329 18.7333 17.013 19.0094C17.1151 19.1657 17.2621 19.2778 17.388 19.4156C17.493 19.5305 17.6655 19.6068 17.763 19.7281C17.9016 19.9003 17.8922 20.3255 18.013 20.5406C18.1104 20.7139 18.2602 20.8984 18.4506 20.9781C19.2114 21.2967 20.426 21.137 21.1693 20.9156C22.1701 20.6175 22.6515 20.0065 22.888 19.0406C22.9113 18.9458 22.4272 18.443 21.9506 17.8844ZM20.6693 17.5094C20.6997 17.5101 20.7332 17.5144 20.763 17.5094C21.3119 17.417 21.0965 16.992 20.9818 16.7906C20.6543 17.4946 20.7787 17.3234 20.6693 17.5094ZM20.9818 16.7906C21.0088 16.781 20.994 16.7471 21.013 16.7281C21.0061 16.7204 20.9193 16.6343 20.9193 16.6344C20.9193 16.6344 20.9531 16.7403 20.9818 16.7906Z" fill="#bfbfbf" fill-rule="nonzero" opacity="1" stroke="none"/>
<path d="M40.1693 10.5406C39.9852 10.465 39.5219 10.9755 39.4818 11.0718C39.346 11.3977 39.3857 11.7553 39.3256 12.1031C39.267 12.4413 39.3129 12.6091 39.3256 12.7906C39.2525 12.7394 39.33 12.7908 38.9818 12.5406C39.0853 12.537 39.197 12.6246 39.2006 12.7281C39.2017 12.7626 39.1534 12.7623 39.138 12.7906C39.2011 12.8112 39.2643 12.8291 39.3256 12.8531C39.3396 12.9485 39.2556 13.0408 39.3256 13.1968C39.4115 13.3885 39.6018 13.5714 39.8256 13.6031C39.9008 13.6138 40.0767 13.6406 40.0443 13.5718C39.9585 13.3894 39.7479 13.2784 39.6068 13.1344C39.5295 13.0555 40.1693 13.3844 40.1693 13.3844C40.1693 13.3844 39.8023 13.1997 40.138 13.6031C40.2361 13.7209 40.1501 13.9073 40.1068 14.0718C40.1459 14.0354 40.1968 14.0176 40.2318 13.9781C40.8157 13.3189 40.8734 12.4233 40.7318 11.6031C40.6721 11.257 40.5445 10.6948 40.1693 10.5406ZM40.1068 14.0718C39.9375 14.2299 39.7638 14.3841 39.5443 14.4468C39.3358 14.5065 39.0773 14.4901 38.888 14.3844C38.5434 14.1918 38.4379 13.6616 38.4818 13.3218C38.5019 13.1665 38.5127 12.879 38.6693 12.8844C39.1951 12.9022 38.6793 12.8976 39.013 12.9156C39.082 12.9132 39.1074 12.8472 39.138 12.7906C38.9637 12.7337 38.7958 12.6622 38.638 12.5718C38.0646 12.2434 37.8891 11.5327 37.138 11.4156C36.8526 11.3711 36.5579 11.3912 36.2943 11.5094C34.2985 12.4038 34.516 15.9527 36.3256 16.9156C36.5936 17.0582 36.8971 17.1884 37.2006 17.1968C37.6071 17.2082 38.0365 17.1827 38.388 16.9781C38.7792 16.7504 39.0318 16.3223 39.3256 15.9781C39.7581 15.4712 39.8406 15.332 40.013 14.7281C40.0577 14.5717 40.0857 14.4206 40.1068 14.2594C40.1147 14.1987 40.0895 14.1375 40.1068 14.0718Z" fill="#bfbfbf" fill-rule="nonzero" opacity="1" stroke="none"/>
<path d="M26.138 2.25944C24.205 2.31314 22.2821 2.47374 20.388 2.79064C16.8601 3.38094 13.3146 4.52924 10.0443 5.97814C8.95685 6.45994 7.88315 7.00154 6.85685 7.60314C6.10925 8.04144 5.39452 8.52104 4.7006 9.04064C3.38122 10.0286 2.1824 11.166 1.2631 12.5406C0.394579 13.8393-0.0843814 15.5188 0.0130986 17.1031C-0.0230014 16.1489 0.171349 15.1482 0.544349 14.2281C1.92096 10.8323 5.55165 8.87024 8.82565 7.69684C11.2566 6.82564 13.7959 6.25394 16.3256 5.75944C17.7788 5.47524 19.2283 5.18154 20.7006 5.00944C24.8757 4.52114 29.1403 4.59824 33.3256 4.82184C37.1898 5.02834 41.1131 5.37094 44.888 6.25944C46.4325 6.62284 48.0319 7.09034 49.388 7.94684C52.3977 9.84794 54.4214 13.1213 55.138 16.6031C54.6054 12.9523 52.9573 9.48744 50.013 7.10314C48.3011 5.71674 46.1241 4.88564 44.0443 4.25944C40.1196 3.07764 36.002 2.57074 31.9193 2.35314C30.0093 2.25134 28.0711 2.20564 26.138 2.25944ZM0.0130986 17.1031C0.0220386 17.3394 0.0643486 17.561 0.106849 17.7906C0.0638486 17.5631 0.0274386 17.3362 0.0130986 17.1031ZM0.106849 17.7906C0.163749 18.0917 0.214479 18.3805 0.325599 18.6656C0.208209 18.3867 0.161769 18.0873 0.106849 17.7906ZM0.325599 18.6656C0.392059 18.8235 0.518539 18.9528 0.606849 19.1031C0.527069 18.951 0.387459 18.8243 0.325599 18.6656ZM0.606849 19.1031C0.795979 19.4637 0.934499 19.8537 1.23185 20.1656C1.25617 20.1894 1.2706 20.1899 1.29435 20.1656C1.3181 20.1413 1.31867 20.0956 1.29435 20.0718C0.979969 19.7864 0.802989 19.4369 0.606849 19.1031ZM55.4193 19.9781C55.3192 21.5702 54.9615 23.142 54.388 24.6344C54.9413 23.1681 55.3394 21.6745 55.4193 20.1031C55.4214 20.0618 55.4176 20.0195 55.4193 19.9781Z" fill="#bfbfbf" fill-rule="nonzero" opacity="1" stroke="none"/>
</g>
</svg>
