<?xml version="1.0" encoding="UTF-8" standalone="no"?>
<!DOCTYPE svg PUBLIC "-//W3C//DTD SVG 1.1//EN" "http://www.w3.org/Graphics/SVG/1.1/DTD/svg11.dtd">
<!-- Created with Vectornator (http://vectornator.io/) -->
<svg height="100%" stroke-miterlimit="10" style="fill-rule:nonzero;clip-rule:evenodd;stroke-linecap:round;stroke-linejoin:round;" version="1.1" viewBox="0 0 55.42 22.4" width="100%" xml:space="preserve" xmlns="http://www.w3.org/2000/svg" xmlns:xlink="http://www.w3.org/1999/xlink">
<defs/>
<clipPath id="ArtboardFrame">
<rect height="22.4" width="55.42" x="0" y="0"/>
</clipPath>
<g clip-path="url(#ArtboardFrame)" id="Layer-1">
<path d="M26.5952 7.8734C26.4111 7.7978 25.9791 8.3084 25.9389 8.4047C25.8032 8.7305 25.8116 9.1194 25.7515 9.4672C25.6967 9.7839 25.7801 9.9261 25.7827 10.0922C25.702 10.0358 25.7727 10.1132 25.4389 9.8734C25.5424 9.8699 25.6229 9.9575 25.6265 10.061C25.627 10.0782 25.599 10.0762 25.5952 10.0922C25.662 10.1139 25.7178 10.1606 25.7827 10.186C25.7959 10.2832 25.7107 10.3692 25.7827 10.5297C25.8687 10.7214 26.0277 10.9043 26.2515 10.936C26.3267 10.9466 26.5026 10.9735 26.4702 10.9047C26.3844 10.7222 26.1738 10.6112 26.0327 10.4672C25.9554 10.3883 26.6265 10.7172 26.6265 10.7172C26.6265 10.7172 26.2594 10.5638 26.5952 10.9672C26.6913 11.0827 26.6064 11.2433 26.5639 11.4047C26.598 11.3722 26.6581 11.377 26.6889 11.3422C27.2729 10.683 27.3305 9.7561 27.1889 8.936C27.1292 8.5898 26.9704 8.0276 26.5952 7.8734ZM26.5639 11.4047C26.3921 11.5688 26.1957 11.7152 25.9702 11.7797C25.7617 11.8393 25.5345 11.823 25.3452 11.7172C25.0005 11.5246 24.895 10.9944 24.9389 10.6547C24.959 10.4993 24.9699 10.2119 25.1265 10.2172C25.6522 10.235 25.1052 10.2304 25.4389 10.2484C25.5252 10.2455 25.5761 10.1723 25.5952 10.0922C25.4245 10.0367 25.2496 9.9932 25.0952 9.9047C24.5217 9.5762 24.3462 8.8655 23.5952 8.7484C23.3098 8.7039 22.9838 8.7241 22.7202 8.8422C20.7244 9.7367 20.9731 13.2855 22.7827 14.2484C23.0507 14.3911 23.3542 14.5212 23.6577 14.5297C24.0643 14.5411 24.4937 14.5155 24.8452 14.311C25.2363 14.0833 25.4577 13.6552 25.7515 13.311C26.184 12.8041 26.2978 12.6648 26.4702 12.061C26.5148 11.9046 26.5429 11.7534 26.5639 11.5922C26.5723 11.5286 26.5458 11.4736 26.5639 11.4047Z" fill="#000000" fill-rule="nonzero" opacity="1" stroke="none"/>
<path d="M26.1374 0.0227612C24.2044 0.0764612 22.2815 0.237061 20.3874 0.553961C16.8595 1.14426 13.314 2.29256 10.0437 3.74146C8.95623 4.22326 7.88253 4.76486 6.85623 5.36646C6.10863 5.80476 5.3939 6.28436 4.69998 6.80396C3.3806 7.79196 2.18178 8.92936 1.26248 10.304C0.393959 11.6027-0.0850012 13.2822 0.0124788 14.8665C-0.0236212 13.9123 0.170729 12.9116 0.543729 11.9915C1.92034 8.59566 5.55103 6.63356 8.82503 5.46016C11.256 4.58896 13.7953 4.01726 16.325 3.52276C17.7782 3.23856 19.2277 2.94486 20.7 2.77276C24.8751 2.28446 29.1397 2.36156 33.325 2.58516C37.1892 2.79166 41.1125 3.13426 44.8874 4.02276C46.4319 4.38616 48.0313 4.85366 49.3874 5.71016C52.3971 7.61126 54.4208 10.8847 55.1374 14.3665C54.6048 10.7157 52.9567 7.25076 50.0124 4.86646C48.3005 3.48006 46.1235 2.64896 44.0437 2.02276C40.119 0.840961 36.0014 0.334061 31.9187 0.116461C30.0087 0.0146612 28.0705-0.0310388 26.1374 0.0227612ZM0.0124788 14.8665C0.0214188 15.1028 0.0637288 15.3244 0.106229 15.554C0.0632288 15.3265 0.0268188 15.0996 0.0124788 14.8665ZM0.106229 15.554C0.163129 15.8551 0.213859 16.1439 0.324979 16.429C0.207589 16.1501 0.161149 15.8507 0.106229 15.554ZM0.324979 16.429C0.391439 16.5869 0.517919 16.7162 0.606229 16.8665C0.526449 16.7144 0.386839 16.5877 0.324979 16.429ZM0.606229 16.8665C0.795359 17.2271 0.933879 17.6171 1.23123 17.929C1.25555 17.9528 1.26998 17.9533 1.29373 17.929C1.31748 17.9047 1.31805 17.859 1.29373 17.8352C0.979349 17.5498 0.802369 17.2003 0.606229 16.8665ZM55.4187 17.7415C55.3186 19.3336 54.9609 20.9054 54.3874 22.3978C54.9407 20.9315 55.3388 19.4379 55.4187 17.8665C55.4208 17.8252 55.417 17.7829 55.4187 17.7415Z" fill="#000000" fill-rule="nonzero" opacity="1" stroke="none"/>
</g>
</svg>
