<?xml version="1.0" encoding="UTF-8" standalone="no"?>
<!DOCTYPE svg PUBLIC "-//W3C//DTD SVG 1.1//EN" "http://www.w3.org/Graphics/SVG/1.1/DTD/svg11.dtd">
<!-- Created with Vectornator (http://vectornator.io/) -->
<svg height="100%" stroke-miterlimit="10" style="fill-rule:nonzero;clip-rule:evenodd;stroke-linecap:round;stroke-linejoin:round;" version="1.1" viewBox="0 0 286.222 146.825" width="100%" xml:space="preserve" xmlns="http://www.w3.org/2000/svg" xmlns:xlink="http://www.w3.org/1999/xlink">
<defs/>
<g id="Layer-1">
<path d="M143.095 0.01215C64.0576 0.0121398 0 64.1003 0 143.137C3.20638e-07 144.383 0.155866 145.587 0.187502 146.825C2.17696 73.4227 65.312 14.4809 143.095 14.4809C220.878 14.4809 284.045 73.4225 286.034 146.825C286.066 145.587 286.222 144.383 286.222 143.137C286.222 64.1003 222.133 0.01215 143.095 0.01215Z" fill="#ebebeb" fill-rule="nonzero" opacity="1" stroke="none"/>
<path d="M81.8918 70.2794C81.8918 72.0457 80.7171 73.178 81.4143 75.0373C82.4614 77.8296 92.4176 83.4786 95.4528 82.1746C101.969 79.3754 103.63 75.2334 105.679 69.0591C106.228 67.4076 108.296 65.1125 108.295 63.4766C108.285 51.8043 81.0117 52.8991 81.0117 64.0553" fill="#ebebeb" fill-rule="nonzero" opacity="1" stroke="none"/>
<path d="M123.604 38.7497C122.577 40.1868 120.963 40.4252 120.45 42.3433C119.678 45.224 124.495 55.6084 127.723 56.3121C134.651 57.8226 138.411 55.4183 143.668 51.5861C145.074 50.5611 148.092 49.8966 149.042 48.5647C155.82 39.0617 132.993 24.0967 126.507 33.1739" fill="#ebebeb" fill-rule="nonzero" opacity="1" stroke="none"/>
<path d="M185.148 81.2345C184.399 79.6352 184.982 78.1113 183.561 76.7238C181.428 74.6399 170.015 73.7506 167.821 76.2195C163.109 81.5195 163.363 85.975 164.127 92.4355C164.332 94.1635 163.433 97.1197 164.128 98.6004C169.092 109.165 193.322 96.5982 188.587 86.4967" fill="#ebebeb" fill-rule="nonzero" opacity="1" stroke="none"/>
</g>
</svg>
