<?xml version="1.0" encoding="UTF-8" standalone="no"?>
<!DOCTYPE svg PUBLIC "-//W3C//DTD SVG 1.1//EN" "http://www.w3.org/Graphics/SVG/1.1/DTD/svg11.dtd">
<!-- Created with Vectornator (http://vectornator.io/) -->
<svg height="100%" stroke-miterlimit="10" style="fill-rule:nonzero;clip-rule:evenodd;stroke-linecap:round;stroke-linejoin:round;" version="1.1" viewBox="0 0 55.42 22.4" width="100%" xml:space="preserve" xmlns="http://www.w3.org/2000/svg" xmlns:xlink="http://www.w3.org/1999/xlink">
<defs/>
<clipPath id="ArtboardFrame">
<rect height="22.4" width="55.42" x="0" y="0"/>
</clipPath>
<g clip-path="url(#ArtboardFrame)" id="Layer-1">
<path d="M13.5437 10.7415C13.3596 10.6659 12.8963 11.1452 12.8562 11.2415C12.7204 11.5673 12.7601 11.9562 12.7 12.304C12.6425 12.6363 12.6902 12.7832 12.7 12.9602C12.6748 12.9427 12.6271 12.9343 12.575 12.8978C12.5761 12.9322 12.5278 12.9319 12.5124 12.9602C12.5792 12.982 12.6351 13.0286 12.7 13.054C12.7158 13.1453 12.6345 13.2205 12.7 13.3665C12.7859 13.5582 12.945 13.7723 13.1687 13.804C13.244 13.8147 13.4511 13.8103 13.4187 13.7415C13.3329 13.559 13.0911 13.4793 12.95 13.3352C12.8726 13.2564 13.5437 13.554 13.5437 13.554C13.5437 13.554 13.1767 13.4006 13.5124 13.804C13.6105 13.9218 13.5245 14.1082 13.4812 14.2728C13.5203 14.2363 13.5712 14.2185 13.6062 14.179C14.1901 13.5198 14.2478 12.5929 14.1062 11.7728C14.0465 11.4266 13.9189 10.8957 13.5437 10.7415ZM13.4812 14.2728C13.3119 14.4308 13.1382 14.585 12.9187 14.6478C12.7102 14.7074 12.4517 14.6597 12.2624 14.554C11.9178 14.3614 11.8123 13.8625 11.8562 13.5228C11.8763 13.3674 11.8871 13.0799 12.0437 13.0852C12.5695 13.1031 12.0537 13.0672 12.3874 13.0852C12.4564 13.0829 12.4818 13.0169 12.5124 12.9602C12.3417 12.9048 12.1669 12.8612 12.0124 12.7728C11.439 12.4443 11.2635 11.7023 10.5124 11.5852C10.227 11.5407 9.90103 11.5921 9.63743 11.7102C7.64173 12.6047 7.89043 16.1223 9.70003 17.0852C9.96803 17.2279 10.2715 17.3893 10.575 17.3978C10.9815 17.4091 11.4109 17.3523 11.7624 17.1478C12.1536 16.9201 12.4062 16.492 12.7 16.1478C13.1325 15.6409 13.215 15.5329 13.3874 14.929C13.4321 14.7726 13.4601 14.6215 13.4812 14.4602C13.4891 14.3996 13.4639 14.3384 13.4812 14.2728Z" fill="#000000" fill-rule="nonzero" opacity="1" stroke="none"/>
<path d="M24.325 4.39776C22.7726 4.11786 20.7802 5.14626 20.45 6.64776C20.3847 6.94426 20.3452 7.25936 20.4187 7.55396C20.5172 7.94856 20.6583 8.36426 20.95 8.64776C21.2745 8.96316 21.7581 9.08246 22.1687 9.27276C22.7733 9.55286 22.9157 9.61296 23.5437 9.61646C23.7063 9.61736 23.8827 9.57706 24.0437 9.55396C24.0968 9.54636 24.1407 9.52366 24.2 9.52276C24.0029 9.40236 23.8191 9.27906 23.7 9.08516C23.5864 8.90046 23.5241 8.63976 23.575 8.42896C23.6676 8.04516 24.1734 7.82186 24.5124 7.77276C24.6675 7.75026 24.9129 7.68296 24.95 7.83516C25.0743 8.34636 24.9712 7.82146 25.0437 8.14776C25.0663 8.21906 25.1304 8.23196 25.2 8.24146C25.2075 8.06146 25.2187 7.88346 25.2624 7.71016C25.4244 7.06946 26.0706 6.71506 25.9812 5.96016C25.9472 5.67336 25.8222 5.36976 25.6374 5.14776C25.2878 4.72736 24.8424 4.49096 24.325 4.39776ZM25.2 8.24146C25.1973 8.30536 25.1746 8.36566 25.1687 8.42896C25.0826 8.46856 24.9838 8.41656 24.8562 8.52276C24.6947 8.65706 24.5452 8.89246 24.575 9.11646C24.585 9.19186 24.6424 9.35366 24.7 9.30396C24.8526 9.17216 24.8805 8.94736 24.9812 8.77276C25.0364 8.67696 24.8874 9.39776 24.8874 9.39776C24.8874 9.39766 24.9668 8.99696 24.6687 9.42896C24.5774 9.56136 24.3777 9.51976 24.2 9.52276C24.2462 9.55096 24.2769 9.59306 24.325 9.61646C25.117 10.0014 26.0106 9.81736 26.7624 9.46016C27.0797 9.30946 27.5587 9.01926 27.6062 8.61646C27.6295 8.41886 27.0535 8.12916 26.95 8.11646C26.5996 8.07336 26.2387 8.20576 25.8874 8.24146C25.5406 8.27666 25.4059 8.36406 25.2312 8.42896C25.2603 8.34646 25.2391 8.42836 25.3874 8.02276C25.4187 8.12146 25.3612 8.24146 25.2624 8.27276C25.2351 8.28136 25.2266 8.24506 25.2 8.24146Z" fill="#000000" fill-rule="nonzero" opacity="1" stroke="none"/>
<path d="M35.075 8.92896C34.6549 8.90716 34.224 8.96706 33.825 9.08516C33.4882 9.18486 32.9656 9.41336 32.8562 9.80396C32.8025 9.99556 33.3496 10.4004 33.45 10.429C33.7894 10.5259 34.16 10.441 34.5124 10.4602C34.8325 10.4777 34.9733 10.4193 35.1374 10.3978C35.0852 10.4951 35.136 10.4059 34.95 10.7415C34.9343 10.6391 35.0038 10.5384 35.1062 10.5228C35.1325 10.5187 35.1445 10.5476 35.1687 10.554C35.1818 10.4884 35.2151 10.431 35.2312 10.3665C35.3261 10.342 35.4243 10.4252 35.575 10.3352C35.7553 10.2275 35.9133 10.0299 35.9187 9.80396C35.9205 9.72796 35.9207 9.54506 35.8562 9.58516C35.685 9.69176 35.6078 9.89696 35.4812 10.054C35.4295 10.1181 35.574 9.80826 35.6374 9.61646C35.652 9.66626 35.7067 9.65046 35.8874 9.46016C35.993 9.34906 36.1877 9.40506 36.3562 9.42896C36.3208 9.39976 36.2996 9.36106 36.2624 9.33516C35.9011 9.08366 35.495 8.95076 35.075 8.92896ZM36.3562 9.42896C36.5405 9.58086 36.7029 9.74266 36.7937 9.96016C36.8772 10.1604 36.8767 10.4162 36.7937 10.6165C36.6426 10.9813 36.1362 11.1518 35.7937 11.1478C35.637 11.1459 35.3692 11.1789 35.3562 11.0228C35.3126 10.4985 35.346 11.0126 35.325 10.679C35.3133 10.6029 35.2386 10.5726 35.1687 10.554C35.1346 10.7255 35.1117 10.8945 35.0437 11.054C34.7843 11.6619 34.0724 11.9507 34.0437 12.7102C34.0328 12.9989 34.1144 13.306 34.2624 13.554C35.3835 15.4319 38.8608 14.776 39.6062 12.8665C39.7166 12.5837 39.8207 12.2626 39.7937 11.9602C39.7576 11.5551 39.6629 11.1293 39.4187 10.804C39.147 10.4421 38.7011 10.2432 38.325 9.99146C37.7711 9.62086 37.6323 9.56106 37.0124 9.46016C36.8519 9.43406 36.7063 9.43106 36.5437 9.42896C36.4826 9.42816 36.4234 9.43846 36.3562 9.42896Z" fill="#000000" fill-rule="nonzero" opacity="1" stroke="none"/>
<path d="M26.1374 0.0227612C24.2044 0.0764612 22.2815 0.237061 20.3874 0.553961C16.8595 1.14426 13.314 2.29256 10.0437 3.74146C8.95623 4.22326 7.88253 4.76486 6.85623 5.36646C6.10863 5.80476 5.3939 6.28436 4.69998 6.80396C3.3806 7.79196 2.18178 8.92936 1.26248 10.304C0.393959 11.6027-0.0850012 13.2822 0.0124788 14.8665C-0.0236212 13.9123 0.170729 12.9116 0.543729 11.9915C1.92034 8.59566 5.55103 6.63356 8.82503 5.46016C11.256 4.58896 13.7953 4.01726 16.325 3.52276C17.7782 3.23856 19.2277 2.94486 20.7 2.77276C24.8751 2.28446 29.1397 2.36156 33.325 2.58516C37.1892 2.79166 41.1125 3.13426 44.8874 4.02276C46.4319 4.38616 48.0313 4.85366 49.3874 5.71016C52.3971 7.61126 54.4208 10.8847 55.1374 14.3665C54.6048 10.7157 52.9567 7.25076 50.0124 4.86646C48.3005 3.48006 46.1235 2.64896 44.0437 2.02276C40.119 0.840961 36.0014 0.334061 31.9187 0.116461C30.0087 0.0146612 28.0705-0.0310388 26.1374 0.0227612ZM0.0124788 14.8665C0.0214188 15.1028 0.0637288 15.3244 0.106229 15.554C0.0632288 15.3265 0.0268188 15.0996 0.0124788 14.8665ZM0.106229 15.554C0.163129 15.8551 0.213859 16.1439 0.324979 16.429C0.207589 16.1501 0.161149 15.8507 0.106229 15.554ZM0.324979 16.429C0.391439 16.5869 0.517919 16.7162 0.606229 16.8665C0.526449 16.7144 0.386839 16.5877 0.324979 16.429ZM0.606229 16.8665C0.795359 17.2271 0.933879 17.6171 1.23123 17.929C1.25555 17.9528 1.26998 17.9533 1.29373 17.929C1.31748 17.9047 1.31805 17.859 1.29373 17.8352C0.979349 17.5498 0.802369 17.2003 0.606229 16.8665ZM55.4187 17.7415C55.3186 19.3336 54.9609 20.9054 54.3874 22.3978C54.9407 20.9315 55.3388 19.4379 55.4187 17.8665C55.4208 17.8252 55.417 17.7829 55.4187 17.7415Z" fill="#000000" fill-rule="nonzero" opacity="1" stroke="none"/>
</g>
</svg>
